<svg width="59" height="36" viewBox="0 0 59 36" fill="none" xmlns="http://www.w3.org/2000/svg">
<g clip-path="url(#clip0_1094_54274)">
<path d="M26.2802 6.46067L15.0893 0L3.89844 6.46067V19.3846L15.0893 25.8453L26.2802 19.3846V6.46067ZM15.0893 2.79254L23.8633 7.85953V17.9909L15.0893 23.0553L6.31536 17.9883V7.85694L15.0893 2.79254Z" fill="#202223"/>
<path d="M34.4989 0.326016L24.5156 6.08984L25.7241 8.18296L35.7073 2.41913L34.4989 0.326016Z" fill="#202223"/>
<path d="M16.3075 23.8555H13.8906V35.3831H16.3075V23.8555Z" fill="#202223"/>
<path d="M20.0262 18.4211H17.5833V13.88H12.6303V18.4211H10.1875V7.42969H12.6303V11.6884H17.5833V7.42969H20.0262V18.4237V18.4211Z" fill="#202223"/>
<path d="M28.3385 25.3346H25.3672V22.3633H28.3385V25.3346Z" fill="#202223"/>
<path d="M31.2578 14.3411H33.7006V15.3332C34.1643 14.9162 34.6332 14.6027 35.1099 14.3955C35.5865 14.1882 36.1305 14.082 36.7445 14.082C37.4517 14.082 38.1096 14.2245 38.7132 14.5121C39.3194 14.7996 39.8375 15.1959 40.2701 15.7037C40.7027 16.2114 41.0447 16.8202 41.2959 17.5326C41.5472 18.2449 41.6742 19.0169 41.6742 19.851C41.6742 20.6852 41.5472 21.4675 41.2959 22.1747C41.0447 22.8819 40.7027 23.4907 40.2701 23.9958C39.8375 24.5035 39.3194 24.8973 38.7132 25.1823C38.1071 25.4646 37.4517 25.6071 36.7445 25.6071C36.1305 25.6071 35.5865 25.4983 35.1099 25.2781C34.6332 25.0605 34.1643 24.7419 33.7006 24.3274V29.7337H31.2578V14.3411ZM33.7006 22.3949C33.9908 22.7187 34.3638 22.9674 34.8145 23.1461C35.2679 23.3223 35.7005 23.413 36.1176 23.413C37.0372 23.413 37.7858 23.0866 38.3635 22.4312C38.9412 21.7784 39.2313 20.9183 39.2313 19.8562C39.2313 18.7941 38.9412 17.9315 38.3635 17.2683C37.7858 16.6078 37.0372 16.2762 36.1176 16.2762C35.7005 16.2762 35.2653 16.3617 34.8145 16.53C34.3612 16.6984 33.9908 16.9445 33.7006 17.2683V22.3949Z" fill="#202223"/>
<path d="M49.3576 29.7365V25.3482C48.2851 25.5166 47.3137 25.4026 46.4407 25.0011C45.5677 24.5996 44.876 23.9493 44.3631 23.0453C43.8502 22.1438 43.5938 21.0117 43.5938 19.6543C43.5938 18.2969 43.8502 17.1726 44.3631 16.2634C44.876 15.3541 45.5677 14.7013 46.4407 14.3024C47.3137 13.906 48.2851 13.7921 49.3576 13.9604V10.6602H51.5362V13.9604C52.6086 13.7921 53.5801 13.9034 54.4531 14.3024C55.3261 14.6987 56.0177 15.3515 56.5306 16.2634C57.0435 17.1726 57.3 18.3021 57.3 19.6543C57.3 21.0066 57.0435 22.1412 56.5306 23.0453C56.0177 23.9493 55.3261 24.5996 54.4531 25.0011C53.5801 25.4026 52.6086 25.5166 51.5362 25.3482V29.7365H49.3576ZM49.3576 23.1489V16.1857C48.8084 16.0898 48.3266 16.1054 47.9173 16.2323C47.5054 16.3566 47.166 16.5742 46.8992 16.8851C46.6298 17.1934 46.4277 17.5845 46.293 18.056C46.1583 18.5275 46.0884 19.0637 46.0884 19.6595C46.0884 20.2553 46.1583 20.7993 46.2982 21.2682C46.4381 21.7371 46.6453 22.1282 46.9251 22.4391C47.2023 22.7525 47.5468 22.9701 47.9535 23.0971C48.3602 23.2214 48.8291 23.2421 49.3576 23.1541V23.1489ZM51.5362 23.1489C52.0646 23.237 52.5335 23.2214 52.9402 23.0971C53.3469 22.9753 53.6889 22.7603 53.9635 22.4546C54.238 22.149 54.4479 21.7604 54.5904 21.2889C54.7328 20.8174 54.8028 20.2734 54.8028 19.6543C54.8028 19.0352 54.7354 18.4938 54.5981 18.0249C54.4634 17.556 54.2614 17.1675 53.992 16.8592C53.7225 16.5509 53.3832 16.3359 52.9739 16.2167C52.562 16.0976 52.0828 16.0872 51.5336 16.1805V23.1437L51.5362 23.1489Z" fill="#202223"/>
</g>
<defs>
<clipPath id="clip0_1094_54274">
<rect width="53.408" height="35.3834" fill="white" transform="translate(3.89844)"/>
</clipPath>
</defs>
</svg>
