<svg width="170" height="76" viewBox="0 0 170 76" fill="none" xmlns="http://www.w3.org/2000/svg">
<g clip-path="url(#clip0_1094_55259)">
<path d="M11.7447 34.0806L0.460938 27.5652V14.5388L11.7447 8.02344L23.0285 14.5388V27.5652L11.7447 34.0806ZM2.89716 26.1607L11.7447 31.2672L20.5879 26.1607V15.9476L11.7447 10.8411L2.89716 15.9476V26.1607Z" fill="#202223"/>
<path d="M32.3775 68.9321L21.0938 62.4168V49.3904L32.3775 42.875L43.6613 49.3904V62.4168L32.3775 68.9321ZM23.53 61.0123L32.3775 66.1188L41.2207 61.0123V50.7992L32.3775 45.6927L23.53 50.7992V61.0123Z" fill="#202223"/>
<path d="M12.9597 32.7188H10.5234V44.3406H12.9597V32.7188Z" fill="#202223"/>
<path d="M41.8288 51.2095L31.1562 45.0452V32.0362L59.3245 15L60.5859 17.0851L33.5968 33.4104V43.6407L43.0469 49.0984L41.8288 51.2095Z" fill="#202223"/>
<path d="M68.0895 22.269C65.1158 22.269 62.3197 21.1115 60.213 19.0091C58.1105 16.9067 56.9531 14.1107 56.9531 11.1326C56.9531 8.1545 58.1105 5.36282 60.213 3.25606C64.5566 -1.08318 71.6181 -1.08752 75.9617 3.25606C80.3053 7.59963 80.3053 14.6655 75.9617 19.0048C73.8593 21.1072 71.0632 22.2646 68.0852 22.2646M68.0852 2.43243C65.857 2.43243 63.6289 3.28207 61.9339 4.97702C60.291 6.61995 59.385 8.80474 59.385 11.1282C59.385 13.4518 60.291 15.6366 61.9339 17.2795C63.5769 18.9224 65.7617 19.8284 68.0852 19.8284C70.4087 19.8284 72.5935 18.9224 74.2364 17.2795C77.6263 13.8896 77.6263 8.36691 74.2364 4.97702C72.5415 3.28207 70.3133 2.43243 68.0852 2.43243Z" fill="#202223"/>
<path d="M69.1058 50.5062H66.6435V45.9286H61.6497V50.5062H59.1875V39.4219H61.6497V43.7134H66.6435V39.4219H69.1058V50.5062Z" fill="#202223"/>
<path d="M82.8943 39.4219L78.1129 52.6694C77.7574 53.6274 77.2372 54.2906 76.5567 54.6547C75.8761 55.0189 75.0611 55.2009 74.1204 55.2009C73.7953 55.2009 73.4485 55.1706 73.0757 55.1056C72.7029 55.0405 72.3128 54.9365 71.9096 54.7848L72.4211 52.5263C72.7636 52.652 73.0757 52.7431 73.3618 52.7951C73.6479 52.8471 73.8994 52.8731 74.1248 52.8731C74.8617 52.8731 75.3646 52.5393 75.6333 51.8761L76.0711 50.8053L71.8359 39.4262H74.3935L77.4366 47.8099L80.2543 39.4262H82.8943V39.4219Z" fill="#202223"/>
<path d="M96.2667 45.0573H94.0559V41.6327H91.9621V48.2911H94.4243V50.5019H87.0507V48.2911H89.4999V41.6327H87.3844V45.0573H85.1953V39.4219H96.2667V45.0573Z" fill="#202223"/>
<path d="M99.0781 39.4207H101.54V40.4177C102.009 39.9972 102.481 39.6808 102.962 39.4727C103.443 39.2646 103.99 39.1562 104.609 39.1562C105.325 39.1562 105.984 39.2993 106.595 39.5897C107.206 39.8802 107.731 40.279 108.164 40.7905C108.602 41.302 108.944 41.9176 109.2 42.6328C109.456 43.3481 109.582 44.1284 109.582 44.9694C109.582 45.8103 109.456 46.5993 109.2 47.3102C108.944 48.0211 108.602 48.6367 108.164 49.1482C107.726 49.6597 107.206 50.0585 106.595 50.3447C105.984 50.6308 105.32 50.7738 104.609 50.7738C103.99 50.7738 103.443 50.6611 102.962 50.4444C102.481 50.2233 102.009 49.9025 101.54 49.4863V54.9353H99.0781V39.4163V39.4207ZM101.54 47.54C101.835 47.8651 102.208 48.1165 102.663 48.2986C103.118 48.4763 103.556 48.5673 103.977 48.5673C104.904 48.5673 105.659 48.2379 106.244 47.579C106.825 46.9201 107.119 46.0531 107.119 44.9824C107.119 43.9116 106.829 43.0403 106.244 42.3728C105.663 41.7052 104.904 41.3714 103.977 41.3714C103.556 41.3714 103.118 41.4581 102.663 41.6271C102.208 41.7962 101.831 42.0476 101.54 42.3728V47.5443V47.54Z" fill="#202223"/>
<path d="M112.367 39.4219H114.829V47.0426L119.195 39.4219H122.285V50.5062H119.823V42.4433L115.22 50.5062H112.367V39.4219Z" fill="#202223"/>
<path d="M71.1388 69.897V75.9008H68.928V72.1078H59.1875V61.0234H61.6497V69.8927H66.6435V61.0234H69.1058V69.8927H71.1388V69.897Z" fill="#202223"/>
<path d="M72.4844 61.0234H74.9466V68.6442L79.3119 61.0234H82.4026V72.1078H79.9404V64.0449L75.3367 72.1078H72.4844V61.0234Z" fill="#202223"/>
<path d="M96.5585 66.5748C96.5585 67.4375 96.4198 68.2221 96.1467 68.9287C95.8736 69.6353 95.4791 70.2422 94.9676 70.7537C94.4561 71.2652 93.8449 71.664 93.1296 71.9501C92.4144 72.2362 91.6211 72.3793 90.7411 72.3793C89.8611 72.3793 89.0895 72.2362 88.3742 71.9501C87.659 71.664 87.0477 71.2652 86.5362 70.7537C86.0247 70.2422 85.6302 69.6353 85.3571 68.9287C85.084 68.2221 84.9453 67.4375 84.9453 66.5748C84.9453 65.7122 85.084 64.9536 85.3571 64.2383C85.6302 63.5231 86.0247 62.9032 86.5362 62.383C87.0477 61.8628 87.659 61.464 88.3742 61.1822C89.0895 60.9004 89.8784 60.7617 90.7411 60.7617C91.6037 60.7617 92.4187 60.9004 93.1296 61.1822C93.8449 61.464 94.4561 61.8628 94.9676 62.383C95.4791 62.9032 95.8693 63.5187 96.1467 64.2383C96.4198 64.9579 96.5585 65.7339 96.5585 66.5748ZM94.0963 66.5792C94.0963 66.0807 94.0183 65.6038 93.8666 65.1573C93.7105 64.7108 93.4894 64.325 93.199 64.0086C92.9085 63.6921 92.5531 63.4407 92.1369 63.2543C91.7208 63.0679 91.2569 62.9725 90.7454 62.9725C90.2339 62.9725 89.7571 63.0679 89.3452 63.2543C88.9334 63.4407 88.5866 63.6921 88.3005 64.0086C88.0144 64.325 87.7977 64.7108 87.6416 65.1573C87.4856 65.6082 87.4119 66.0807 87.4119 66.5792C87.4119 67.0777 87.4899 67.5805 87.6416 68.0097C87.7977 68.4388 88.0144 68.816 88.3005 69.1411C88.5866 69.4662 88.9334 69.7176 89.3452 69.8954C89.7571 70.0731 90.2209 70.1641 90.7454 70.1641C91.2699 70.1641 91.7208 70.0731 92.1369 69.8954C92.5531 69.7176 92.9042 69.4662 93.199 69.1411C93.4894 68.816 93.7148 68.4388 93.8666 68.0097C94.0226 67.5805 94.0963 67.1037 94.0963 66.5792Z" fill="#202223"/>
<path d="M108.993 61.02V72.1043H106.53V63.2351H102.343V68.8185C102.343 69.46 102.247 70.0106 102.057 70.4657C101.866 70.9209 101.615 71.2894 101.302 71.5668C100.99 71.8442 100.622 72.048 100.197 72.178C99.7722 72.3081 99.317 72.3731 98.8359 72.3731C98.1683 72.3731 97.6828 72.2734 97.375 72.074L97.6828 69.9585C97.7998 70.0279 97.9299 70.0756 98.0686 70.1103C98.2073 70.1449 98.3894 70.1623 98.6105 70.1623C99.4601 70.1623 99.8849 69.7158 99.8849 68.8271V61.0156H108.993V61.02Z" fill="#202223"/>
<path d="M123.152 66.5748C123.152 67.4375 123.014 68.2221 122.74 68.9287C122.467 69.6353 122.073 70.2422 121.561 70.7537C121.05 71.2652 120.439 71.664 119.723 71.9501C119.008 72.2362 118.215 72.3793 117.335 72.3793C116.455 72.3793 115.683 72.2362 114.968 71.9501C114.253 71.664 113.641 71.2652 113.13 70.7537C112.618 70.2422 112.224 69.6353 111.951 68.9287C111.678 68.2221 111.539 67.4375 111.539 66.5748C111.539 65.7122 111.678 64.9536 111.951 64.2383C112.224 63.5231 112.618 62.9032 113.13 62.383C113.641 61.8628 114.253 61.464 114.968 61.1822C115.683 60.9004 116.472 60.7617 117.335 60.7617C118.197 60.7617 119.012 60.9004 119.723 61.1822C120.439 61.464 121.05 61.8628 121.561 62.383C122.073 62.9032 122.463 63.5187 122.74 64.2383C123.014 64.9579 123.152 65.7339 123.152 66.5748ZM120.69 66.5792C120.69 66.0807 120.612 65.6038 120.46 65.1573C120.304 64.7108 120.083 64.325 119.793 64.0086C119.502 63.6921 119.147 63.4407 118.731 63.2543C118.315 63.0679 117.851 62.9725 117.339 62.9725C116.828 62.9725 116.351 63.0679 115.939 63.2543C115.527 63.4407 115.18 63.6921 114.894 64.0086C114.608 64.325 114.391 64.7108 114.235 65.1573C114.079 65.6082 114.006 66.0807 114.006 66.5792C114.006 67.0777 114.084 67.5805 114.235 68.0097C114.391 68.4388 114.608 68.816 114.894 69.1411C115.18 69.4662 115.527 69.7176 115.939 69.8954C116.351 70.0731 116.815 70.1641 117.339 70.1641C117.864 70.1641 118.315 70.0731 118.731 69.8954C119.147 69.7176 119.498 69.4662 119.793 69.1411C120.083 68.816 120.309 68.4388 120.46 68.0097C120.616 67.5805 120.69 67.1037 120.69 66.5792Z" fill="#202223"/>
<path d="M125.664 61.02H136.163V63.0877H128.126V72.1H125.664V61.0156V61.02Z" fill="#202223"/>
<path d="M139.175 72.0345H136.18V69.0391H139.175V72.0345Z" fill="#202223"/>
<path d="M143.164 60.9519H145.626V61.949C146.094 61.5285 146.567 61.212 147.048 61.0039C147.529 60.7959 148.076 60.6875 148.695 60.6875C149.411 60.6875 150.07 60.8306 150.681 61.121C151.292 61.4114 151.817 61.8102 152.25 62.3218C152.688 62.8333 153.03 63.4488 153.286 64.1641C153.542 64.8837 153.668 65.6596 153.668 66.5006C153.668 67.3416 153.542 68.1305 153.286 68.8415C153.03 69.5524 152.688 70.1679 152.25 70.6795C151.812 71.191 151.292 71.5898 150.681 71.8759C150.07 72.162 149.406 72.3051 148.695 72.3051C148.076 72.3051 147.529 72.1923 147.048 71.9756C146.567 71.7545 146.094 71.4337 145.626 71.0176V76.4709H143.164V60.9519ZM145.626 69.0712C145.921 69.3963 146.294 69.6478 146.749 69.8255C147.204 70.0032 147.642 70.0942 148.063 70.0942C148.99 70.0942 149.744 69.7648 150.33 69.1059C150.911 68.447 151.205 67.58 151.205 66.5093C151.205 65.4386 150.915 64.5672 150.33 63.8997C149.749 63.2321 148.99 62.8983 148.063 62.8983C147.642 62.8983 147.204 62.985 146.749 63.1541C146.294 63.3231 145.917 63.5745 145.626 63.8997V69.0712Z" fill="#202223"/>
<path d="M161.41 76.4684V72.0424C160.331 72.2115 159.347 72.0988 158.471 71.6913C157.591 71.2881 156.893 70.6292 156.378 69.7189C155.862 68.8086 155.602 67.6685 155.602 66.2987C155.602 64.9288 155.862 63.7974 156.378 62.8784C156.893 61.9594 157.591 61.3049 158.471 60.9017C159.351 60.5029 160.331 60.3859 161.41 60.5593V57.2344H163.608V60.5593C164.688 60.3902 165.672 60.5029 166.547 60.9017C167.427 61.3005 168.125 61.9594 168.641 62.8784C169.157 63.7974 169.417 64.9332 169.417 66.2987C169.417 67.6642 169.157 68.8086 168.641 69.7189C168.125 70.6292 167.427 71.2881 166.547 71.6913C165.667 72.0944 164.688 72.2115 163.608 72.0424V76.4684H161.41ZM161.41 69.8273V62.8047C160.855 62.7094 160.37 62.7224 159.958 62.8524C159.542 62.9781 159.204 63.1992 158.931 63.5113C158.662 63.8234 158.458 64.2179 158.32 64.6904C158.181 65.1673 158.116 65.7048 158.116 66.3073C158.116 66.9099 158.185 67.4561 158.328 67.9286C158.467 68.4011 158.679 68.7956 158.961 69.1077C159.243 69.4241 159.585 69.6452 159.997 69.7709C160.409 69.8966 160.881 69.9183 161.415 69.8273H161.41ZM163.608 69.8273C164.141 69.9183 164.614 69.901 165.026 69.7753C165.437 69.6539 165.78 69.4371 166.057 69.1294C166.335 68.8216 166.543 68.4314 166.69 67.9546C166.833 67.4778 166.907 66.9316 166.907 66.3073C166.907 65.6831 166.838 65.1369 166.703 64.6644C166.565 64.1919 166.361 63.8018 166.092 63.4896C165.823 63.1775 165.481 62.9608 165.065 62.8437C164.649 62.7224 164.167 62.7137 163.612 62.8091V69.8316L163.608 69.8273Z" fill="#202223"/>
</g>
<defs>
<clipPath id="clip0_1094_55259">
<rect width="168.979" height="76.4721" fill="white" transform="translate(0.453125)"/>
</clipPath>
</defs>
</svg>
