<svg width="255" height="68" viewBox="0 0 255 68" fill="none" xmlns="http://www.w3.org/2000/svg">
<g clip-path="url(#clip0_1094_55342)">
<path d="M11.1626 33.625L0 27.1796V14.2931L11.1626 7.84766L22.3252 14.2931V27.1796L11.1626 33.625ZM2.41006 25.7902L11.1626 30.8419L19.9109 25.7902V15.6868L11.1626 10.6351L2.41006 15.6868V25.7902Z" fill="#202223"/>
<path d="M31.5767 68.1055L20.4141 61.6601V48.7735L31.5767 42.3281L42.7393 48.7735V61.6601L31.5767 68.1055ZM22.8241 60.2706L31.5767 65.3223L40.3249 60.2706V50.1673L31.5767 45.1156L22.8241 50.1673V60.2706Z" fill="#202223"/>
<path d="M12.371 32.2852H9.96094V43.7823H12.371V32.2852Z" fill="#202223"/>
<path d="M40.933 50.5746L30.375 44.4766V31.6072L58.2408 14.7539L59.4887 16.8166L32.7893 32.9666V43.0871L42.138 48.4862L40.933 50.5746Z" fill="#202223"/>
<path d="M66.8996 21.9439C63.9578 21.9439 61.1918 20.7989 59.1077 18.7191C57.0278 16.6392 55.8828 13.8732 55.8828 10.9271C55.8828 7.98101 57.0278 5.2193 59.1077 3.13516C63.4046 -1.15749 70.3903 -1.16178 74.6873 3.13516C78.9842 7.4321 78.9842 14.4221 74.6873 18.7148C72.6074 20.7946 69.8414 21.9396 66.8953 21.9396M66.8953 2.32037C64.6911 2.32037 62.4869 3.16089 60.8101 4.83764C59.1849 6.46293 58.2886 8.62427 58.2886 10.9228C58.2886 13.2214 59.1849 15.3827 60.8101 17.008C62.4354 18.6333 64.5968 19.5296 66.8953 19.5296C69.1939 19.5296 71.3552 18.6333 72.9805 17.008C76.334 13.6545 76.334 8.19114 72.9805 4.83764C71.3038 3.16089 69.0995 2.32037 66.8953 2.32037Z" fill="#202223"/>
<path d="M69.7995 54.2262H67.0935V49.1917H61.6044V54.2262H58.8984V42.043H61.6044V46.7602H67.0935V42.043H69.7995V54.2262Z" fill="#202223"/>
<path d="M84.9423 42.043L79.689 56.6063C79.2988 57.6612 78.7242 58.3902 77.978 58.789C77.2275 59.1878 76.3355 59.3894 75.2978 59.3894C74.9418 59.3894 74.5559 59.3551 74.1485 59.2865C73.7368 59.2179 73.3122 59.0978 72.8662 58.9348L73.428 56.4519C73.8011 56.5891 74.1485 56.6877 74.4615 56.7478C74.7746 56.8035 75.0533 56.8335 75.2978 56.8335C76.1083 56.8335 76.6615 56.469 76.9574 55.7357L77.4419 54.5607L72.7891 42.0515H75.5979L78.9429 51.2672L82.0391 42.0515H84.9423V42.043Z" fill="#202223"/>
<path d="M99.659 48.2357H97.2275V44.4706H94.9247V51.7908H97.6306V54.2223H89.5256V51.7908H92.2187V44.4706H89.8901V48.2357H87.4844V42.0391H99.6547V48.2357H99.659Z" fill="#202223"/>
<path d="M102.742 42.0412H105.448V43.139C105.963 42.6759 106.482 42.3328 107.009 42.1013C107.537 41.8697 108.141 41.7539 108.819 41.7539C109.604 41.7539 110.333 41.9126 111.002 42.2299C111.671 42.5473 112.249 42.989 112.725 43.5507C113.206 44.1125 113.583 44.7901 113.862 45.5748C114.141 46.3639 114.282 47.2216 114.282 48.1436C114.282 49.0656 114.141 49.9361 113.862 50.7209C113.583 51.5056 113.206 52.1789 112.725 52.7407C112.245 53.3025 111.671 53.7399 111.002 54.0529C110.328 54.366 109.604 54.5247 108.819 54.5247C108.141 54.5247 107.537 54.4046 107.009 54.1601C106.482 53.9157 105.963 53.5683 105.448 53.1052V59.096H102.742V42.0369V42.0412ZM105.448 50.9696C105.77 51.3255 106.181 51.6043 106.683 51.8015C107.185 51.9988 107.665 52.0974 108.128 52.0974C109.149 52.0974 109.977 51.7372 110.62 51.0125C111.259 50.2878 111.581 49.3357 111.581 48.1564C111.581 46.9771 111.259 46.0208 110.62 45.2875C109.981 44.5542 109.149 44.1897 108.128 44.1897C107.665 44.1897 107.185 44.284 106.683 44.4727C106.181 44.6614 105.77 44.9316 105.448 45.2918V50.9739V50.9696Z" fill="#202223"/>
<path d="M117.367 42.043H120.073V50.4224L124.872 42.043H128.272V54.2262H125.567V45.3622L120.506 54.2262H117.367V42.043Z" fill="#202223"/>
<path d="M145.108 51.7947V58.3945H142.677V54.2262H131.969V42.043H134.675V51.7947H140.164V42.043H142.87V51.7947H145.104H145.108Z" fill="#202223"/>
<path d="M146.578 42.043H149.284V50.4224L154.083 42.043H157.483V54.2262H154.777V45.3622L149.717 54.2262H146.578V42.043Z" fill="#202223"/>
<path d="M173.051 48.144C173.051 49.096 172.901 49.9579 172.601 50.7341C172.301 51.5103 171.868 52.1793 171.306 52.7411C170.744 53.3029 170.071 53.7403 169.286 54.0533C168.501 54.3664 167.626 54.525 166.657 54.525C165.688 54.525 164.839 54.3664 164.054 54.0533C163.269 53.7403 162.596 53.3029 162.034 52.7411C161.473 52.1793 161.04 51.5103 160.739 50.7341C160.439 49.9579 160.289 49.096 160.289 48.144C160.289 47.1919 160.439 46.3643 160.739 45.5752C161.04 44.7862 161.473 44.1086 162.034 43.534C162.596 42.9636 163.269 42.5219 164.054 42.2131C164.839 41.9044 165.705 41.75 166.657 41.75C167.609 41.75 168.501 41.9044 169.286 42.2131C170.071 42.5219 170.744 42.9636 171.306 43.534C171.868 44.1043 172.301 44.7862 172.601 45.5752C172.901 46.3643 173.051 47.222 173.051 48.144ZM170.345 48.1525C170.345 47.6036 170.26 47.0804 170.092 46.5873C169.925 46.0941 169.676 45.6739 169.355 45.3222C169.033 44.9749 168.643 44.6961 168.188 44.4903C167.734 44.2844 167.223 44.1815 166.657 44.1815C166.091 44.1815 165.572 44.2844 165.122 44.4903C164.672 44.6961 164.29 44.9706 163.977 45.3222C163.664 45.6696 163.424 46.0941 163.252 46.5873C163.085 47.0804 162.999 47.6036 162.999 48.1525C162.999 48.7014 163.085 49.2504 163.252 49.7221C163.42 50.1938 163.664 50.6098 163.977 50.9657C164.29 51.3216 164.672 51.6004 165.122 51.7976C165.572 51.9949 166.087 52.0935 166.657 52.0935C167.228 52.0935 167.734 51.9949 168.188 51.7976C168.643 51.6004 169.033 51.3259 169.355 50.9657C169.676 50.6098 169.921 50.1938 170.092 49.7221C170.26 49.2504 170.345 48.7272 170.345 48.1525Z" fill="#202223"/>
<path d="M186.72 42.043V54.2262H184.014V44.4745H179.413V50.6154C179.413 51.323 179.31 51.9276 179.1 52.4294C178.89 52.9311 178.615 53.3342 178.268 53.6387C177.925 53.9432 177.518 54.1705 177.05 54.312C176.583 54.4578 176.085 54.5264 175.553 54.5264C174.82 54.5264 174.284 54.4192 173.945 54.2005L174.284 51.8719C174.413 51.9448 174.559 52.0006 174.709 52.0391C174.863 52.0777 175.06 52.0949 175.305 52.0949C176.235 52.0949 176.703 51.606 176.703 50.6283V42.043H186.716H186.72Z" fill="#202223"/>
<path d="M202.286 48.144C202.286 49.096 202.136 49.9579 201.835 50.7341C201.535 51.5103 201.102 52.1793 200.54 52.7411C199.978 53.3029 199.305 53.7403 198.52 54.0533C197.736 54.3664 196.861 54.525 195.892 54.525C194.922 54.525 194.073 54.3664 193.289 54.0533C192.504 53.7403 191.831 53.3029 191.269 52.7411C190.707 52.1793 190.274 51.5103 189.974 50.7341C189.674 49.9579 189.523 49.096 189.523 48.144C189.523 47.1919 189.674 46.3643 189.974 45.5752C190.274 44.7862 190.707 44.1086 191.269 43.534C191.831 42.9636 192.504 42.5219 193.289 42.2131C194.073 41.9044 194.94 41.75 195.892 41.75C196.844 41.75 197.736 41.9044 198.52 42.2131C199.305 42.5219 199.978 42.9636 200.54 43.534C201.102 44.1043 201.535 44.7862 201.835 45.5752C202.136 46.3643 202.286 47.222 202.286 48.144ZM199.58 48.1525C199.58 47.6036 199.494 47.0804 199.327 46.5873C199.159 46.0941 198.911 45.6739 198.589 45.3222C198.267 44.9749 197.877 44.6961 197.423 44.4903C196.968 44.2844 196.458 44.1815 195.892 44.1815C195.326 44.1815 194.807 44.2844 194.356 44.4903C193.906 44.6961 193.524 44.9706 193.211 45.3222C192.898 45.6696 192.658 46.0941 192.487 46.5873C192.319 47.0804 192.234 47.6036 192.234 48.1525C192.234 48.7014 192.319 49.2504 192.487 49.7221C192.654 50.1938 192.898 50.6098 193.211 50.9657C193.524 51.3216 193.906 51.6004 194.356 51.7976C194.807 51.9949 195.321 52.0935 195.892 52.0935C196.462 52.0935 196.968 51.9949 197.423 51.7976C197.877 51.6004 198.267 51.3259 198.589 50.9657C198.911 50.6098 199.155 50.1938 199.327 49.7221C199.494 49.2504 199.58 48.7272 199.58 48.1525Z" fill="#202223"/>
<path d="M205.039 42.043H216.583V44.3158H207.745V54.2262H205.039V42.043Z" fill="#202223"/>
<path d="M221.411 54.2232H218.117V50.9297H221.411V54.2232Z" fill="#202223"/>
<path d="M226.328 42.0412H229.034V43.139C229.549 42.6759 230.068 42.3328 230.595 42.1013C231.123 41.8697 231.727 41.7539 232.405 41.7539C233.19 41.7539 233.919 41.9126 234.588 42.2299C235.257 42.5473 235.835 42.989 236.311 43.5507C236.792 44.1125 237.169 44.7901 237.448 45.5748C237.727 46.3639 237.868 47.2216 237.868 48.1436C237.868 49.0656 237.727 49.9361 237.448 50.7209C237.169 51.5056 236.792 52.1789 236.311 52.7407C235.831 53.3025 235.257 53.7399 234.588 54.0529C233.914 54.366 233.19 54.5247 232.405 54.5247C231.727 54.5247 231.123 54.4046 230.595 54.1601C230.068 53.9157 229.549 53.5683 229.034 53.1052V59.096H226.328V42.0369V42.0412ZM229.034 50.9696C229.356 51.3255 229.767 51.6043 230.269 51.8015C230.771 51.9988 231.251 52.0974 231.714 52.0974C232.735 52.0974 233.563 51.7372 234.206 51.0125C234.845 50.2878 235.166 49.3357 235.166 48.1564C235.166 46.9771 234.845 46.0208 234.206 45.2875C233.567 44.5542 232.735 44.1897 231.714 44.1897C231.251 44.1897 230.771 44.284 230.269 44.4727C229.767 44.6614 229.356 44.9316 229.034 45.2918V50.9739V50.9696Z" fill="#202223"/>
<path d="M246.201 59.1015V54.38C245.047 54.5644 244.001 54.44 243.062 54.0069C242.123 53.5781 241.381 52.8748 240.828 51.9056C240.274 50.9364 240 49.7185 240 48.2605C240 46.8024 240.274 45.5931 240.828 44.6154C241.381 43.6376 242.123 42.9343 243.062 42.5055C244.001 42.0767 245.047 41.9566 246.201 42.1367V38.5859H248.547V42.1367C249.7 41.9523 250.747 42.0767 251.686 42.5055C252.625 42.9343 253.367 43.6333 253.92 44.6154C254.473 45.5931 254.748 46.811 254.748 48.2605C254.748 49.71 254.473 50.9364 253.92 51.9056C253.367 52.8748 252.625 53.5781 251.686 54.0069C250.747 54.4357 249.7 54.5601 248.547 54.38V59.1015H246.201ZM246.201 52.0171V44.5253C245.609 44.4224 245.095 44.4396 244.653 44.5725C244.211 44.7097 243.847 44.9413 243.559 45.2715C243.272 45.606 243.053 46.022 242.907 46.5323C242.762 47.0383 242.689 47.6129 242.689 48.2562C242.689 48.8995 242.762 49.4827 242.912 49.9887C243.062 50.4904 243.285 50.9107 243.585 51.2495C243.885 51.584 244.254 51.8198 244.691 51.9571C245.129 52.0943 245.635 52.1114 246.201 52.0171ZM248.547 52.0171C249.117 52.1114 249.619 52.0943 250.056 51.9613C250.494 51.8284 250.862 51.6011 251.158 51.2709C251.454 50.9407 251.677 50.5247 251.832 50.0187C251.986 49.5127 252.063 48.9252 252.063 48.2605C252.063 47.5958 251.99 47.0126 251.844 46.5065C251.699 46.0048 251.48 45.5845 251.193 45.2543C250.905 44.9241 250.541 44.6926 250.099 44.5639C249.657 44.4353 249.143 44.4224 248.551 44.5253V52.0171H248.547Z" fill="#202223"/>
</g>
<defs>
<clipPath id="clip0_1094_55342">
<rect width="255" height="68" fill="white"/>
</clipPath>
</defs>
</svg>
