<?xml version="1.0" encoding="utf-8"?><svg viewBox="0 0 70 69" xmlns="http://www.w3.org/2000/svg" xmlns:xlink="http://www.w3.org/1999/xlink"><style>:root>svg{display:none}:root>svg:target{display:block}</style><svg fill="none" viewBox="0 0 70 69" id="arr" xmlns="http://www.w3.org/2000/svg"><g filter="url(#aaa)"><circle cx="28" cy="28" transform="matrix(1 0 0 -1 7 60)" fill="#fff" r="28"/><path d="M62.25 32c0-15.05-12.2-27.25-27.25-27.25S7.75 16.95 7.75 32 19.95 59.25 35 59.25 62.25 47.05 62.25 32Z" stroke="#202223" stroke-width="1.5"/></g><path d="m35.057 25.147 6.762 6.762m0 0-6.762 6.763m6.762-6.763H28.001" stroke="#202223" stroke-width="1.5"/><defs><filter id="aaa" x=".636" y=".182" width="68.727" height="68.727" filterUnits="userSpaceOnUse" color-interpolation-filters="sRGB"><feFlood flood-opacity="0" result="BackgroundImageFix"/><feColorMatrix in="SourceAlpha" values="0 0 0 0 0 0 0 0 0 0 0 0 0 0 0 0 0 0 127 0" result="hardAlpha"/><feOffset dy="2.545"/><feGaussianBlur stdDeviation="3.182"/><feComposite in2="hardAlpha" operator="out"/><feColorMatrix values="0 0 0 0 0 0 0 0 0 0 0 0 0 0 0 0 0 0 0.05 0"/><feBlend in2="BackgroundImageFix" result="effect1_dropShadow_1094_55202"/><feBlend in="SourceGraphic" in2="effect1_dropShadow_1094_55202" result="shape"/></filter></defs></svg><svg fill="none" viewBox="0 0 70 69" id="arr2" xmlns="http://www.w3.org/2000/svg"><g filter="url(#aba)"><circle cx="28" cy="28" transform="matrix(1 0 0 -1 7 60)" fill="#161517" r="28"/><path d="M62 32C62 17.088 49.912 5 35 5S8 17.088 8 32s12.088 27 27 27 27-12.088 27-27Z" stroke="#202223" stroke-width="2"/></g><path d="m35.588 23.291 9.099 9.099m0 0-9.099 9.098m9.099-9.098H26.095" stroke="#fff" stroke-width="2"/><defs><filter id="aba" x=".636" y=".182" width="68.727" height="68.727" filterUnits="userSpaceOnUse" color-interpolation-filters="sRGB"><feFlood flood-opacity="0" result="BackgroundImageFix"/><feColorMatrix in="SourceAlpha" values="0 0 0 0 0 0 0 0 0 0 0 0 0 0 0 0 0 0 127 0" result="hardAlpha"/><feOffset dy="2.545"/><feGaussianBlur stdDeviation="3.182"/><feComposite in2="hardAlpha" operator="out"/><feColorMatrix values="0 0 0 0 0 0 0 0 0 0 0 0 0 0 0 0 0 0 0.05 0"/><feBlend in2="BackgroundImageFix" result="effect1_dropShadow_1135_84814"/><feBlend in="SourceGraphic" in2="effect1_dropShadow_1135_84814" result="shape"/></filter></defs></svg><svg fill="none" viewBox="0 0 48 48" id="articles" xmlns="http://www.w3.org/2000/svg"><mask id="aca" maskUnits="userSpaceOnUse" x="30.789" y="5" width="15" height="15" fill="#000"><path fill="#fff" d="M30.789 5h15v15h-15z"/><path d="M38.361 19.142a6.537 6.537 0 0 1-4.648-1.924 6.529 6.529 0 0 1-1.924-4.648c0-1.758.683-3.405 1.924-4.648 2.563-2.561 6.73-2.564 9.294 0 2.564 2.563 2.564 6.733 0 9.294a6.528 6.528 0 0 1-4.648 1.924m0-11.704a5.12 5.12 0 0 0-3.63 1.501 5.101 5.101 0 0 0-1.505 3.63c0 1.372.535 2.661 1.505 3.63a5.101 5.101 0 0 0 3.63 1.505c1.371 0 2.66-.535 3.63-1.504 2-2 2-5.26 0-7.26a5.12 5.12 0 0 0-3.63-1.502Z"/></mask><path d="M38.361 19.142a6.537 6.537 0 0 1-4.648-1.924 6.529 6.529 0 0 1-1.924-4.648c0-1.758.683-3.405 1.924-4.648 2.563-2.561 6.73-2.564 9.294 0 2.564 2.563 2.564 6.733 0 9.294a6.528 6.528 0 0 1-4.648 1.924m0-11.704a5.12 5.12 0 0 0-3.63 1.501 5.101 5.101 0 0 0-1.505 3.63c0 1.372.535 2.661 1.505 3.63a5.101 5.101 0 0 0 3.63 1.505c1.371 0 2.66-.535 3.63-1.504 2-2 2-5.26 0-7.26a5.12 5.12 0 0 0-3.63-1.502Z" fill="#202223"/><path d="m33.713 17.218-.142.142.142-.142Zm0-9.296-.141-.142.14.142Zm9.294 9.294-.141-.142.141.142Zm-4.646 1.726a6.338 6.338 0 0 1-4.507-1.865l-.282.283a6.738 6.738 0 0 0 4.79 1.982v-.4Zm-4.507-1.865a6.329 6.329 0 0 1-1.865-4.507h-.4c0 1.81.704 3.512 1.983 4.79l.282-.283ZM31.99 12.57c0-1.704.662-3.301 1.866-4.507l-.284-.283a6.733 6.733 0 0 0-1.982 4.79h.4Zm1.865-4.507a6.38 6.38 0 0 1 9.012 0l.283-.283c-2.642-2.641-6.936-2.639-9.577 0l.282.283Zm9.012 0c2.485 2.485 2.485 6.529 0 9.011l.283.283c2.641-2.639 2.641-6.935 0-9.577l-.283.283Zm0 9.011a6.329 6.329 0 0 1-4.507 1.866v.4c1.81 0 3.511-.704 4.79-1.983l-.283-.282Zm-4.507-9.838a5.32 5.32 0 0 0-3.772 1.56l.283.283a4.92 4.92 0 0 1 3.489-1.443v-.4Zm-3.772 1.56a5.301 5.301 0 0 0-1.563 3.772h.4a4.9 4.9 0 0 1 1.446-3.49l-.283-.282Zm-1.563 3.772c0 1.424.556 2.764 1.563 3.771l.283-.283a4.9 4.9 0 0 1-1.446-3.489h-.4Zm1.563 3.771a5.301 5.301 0 0 0 3.772 1.563v-.4a4.901 4.901 0 0 1-3.489-1.446l-.283.283Zm3.772 1.563a5.302 5.302 0 0 0 3.771-1.563l-.282-.283a4.901 4.901 0 0 1-3.49 1.446v.4Zm3.771-1.563a5.342 5.342 0 0 0 0-7.543l-.282.283a4.942 4.942 0 0 1 0 6.977l.282.283Zm0-7.543a5.32 5.32 0 0 0-3.771-1.56v.4a4.92 4.92 0 0 1 3.489 1.443l.282-.283Z" fill="#202223" mask="url(#aca)"/><path d="m28.452 33.341.05-.087.72-1.245.05-.087-.087-.05-5.527-3.192v-5.924l10.428-6.44.084-.052-.05-.085-.745-1.23-.053-.087-.085.053-11.172 6.889-.048.03v7.79l.05.03 6.299 3.637.086.05ZM10.045 29.052v-6.659h1.238v6.659h-1.238Z" fill="#202223" stroke="#202223" stroke-width=".2"/><path d="m22.797 43.75.05.029.05-.03 6.66-3.844.049-.03V32.074l-.05-.03-6.66-3.844-.05-.03-.05.03-6.659 3.845-.05.029v7.803l.05.029 6.66 3.845Zm.05-1.863-5.122-2.956V33.02l5.122-2.957 5.119 2.957v5.911l-5.12 2.956ZM10.61 23.18l.05.028.05-.029 6.659-3.845.05-.029v-7.803l-.05-.029-6.66-3.845-.05-.029-.05.03-6.659 3.844-.05.03V19.304l.05.03 6.66 3.844Zm.05-1.863-5.122-2.956V12.45l5.121-2.956 5.12 2.956v5.912l-5.12 2.956Z" fill="#202223" stroke="#202223" stroke-width=".2"/></svg><svg fill="none" viewBox="0 0 21 20" id="basket" xmlns="http://www.w3.org/2000/svg"><g clip-path="url(#ada)"><path d="M15.297 5a5 5 0 0 0-10 0h-5v12.5a2.5 2.5 0 0 0 2.5 2.5h15a2.5 2.5 0 0 0 2.5-2.5V5h-5Zm-5-3.333A3.333 3.333 0 0 1 13.63 5H6.964a3.333 3.333 0 0 1 3.333-3.333ZM18.63 17.5a.833.833 0 0 1-.833.833h-15a.834.834 0 0 1-.833-.833V6.667h3.333v1.666h1.667V6.667h6.666v1.666h1.667V6.667h3.333V17.5Z" fill="#202223"/></g><defs><clipPath id="ada"><path fill="#fff" transform="translate(.297)" d="M0 0h20v20H0z"/></clipPath></defs></svg><svg fill="none" viewBox="0 0 16 16" id="btm" xmlns="http://www.w3.org/2000/svg"><path d="M14 11 8 6l-6 5" stroke="#202223" stroke-width="1.5"/></svg><svg fill="none" viewBox="0 0 24 24" id="close" xmlns="http://www.w3.org/2000/svg"><path fill="#202223" d="m7.414 6 11.314 11.314-1.414 1.414L6 7.414z"/><path fill="#202223" d="M18.726 7.414 7.413 18.728l-1.415-1.414L17.312 6z"/></svg><svg fill="none" viewBox="0 0 15 14" id="fltr" xmlns="http://www.w3.org/2000/svg"><path fill="#fff" d="M13.5 2.5v2h-8v-2zM1 9v2h8V9zM2.5 5a1.5 1.5 0 1 1 0-3 1.5 1.5 0 0 1 0 3ZM12 11.5a1.5 1.5 0 1 0 0-3 1.5 1.5 0 0 0 0 3Z"/></svg><svg fill="none" viewBox="0 0 56 56" id="inst" xmlns="http://www.w3.org/2000/svg"><circle cx="28" cy="28" r="27.25" stroke="#202223" stroke-width="1.5"/><g clip-path="url(#aia)"><path d="M28 23.5a4.5 4.5 0 1 0 0 9 4.5 4.5 0 0 0 0-9Zm0 7.5a3 3 0 1 1 3-3 3.01 3.01 0 0 1-3 3Zm4.125-12.375h-8.25a5.25 5.25 0 0 0-5.25 5.25v8.25a5.25 5.25 0 0 0 5.25 5.25h8.25a5.25 5.25 0 0 0 5.25-5.25v-8.25a5.25 5.25 0 0 0-5.25-5.25Zm3.75 13.5a3.75 3.75 0 0 1-3.75 3.75h-8.25a3.75 3.75 0 0 1-3.75-3.75v-8.25a3.75 3.75 0 0 1 3.75-3.75h8.25a3.75 3.75 0 0 1 3.75 3.75v8.25Zm-1.875-9a1.125 1.125 0 1 1-2.25 0 1.125 1.125 0 0 1 2.25 0Z" fill="#000"/></g><defs><clipPath id="aia"><path fill="#fff" transform="translate(16 16)" d="M0 0h24v24H0z"/></clipPath></defs></svg><svg fill="none" viewBox="0 0 56 56" id="inst-h" xmlns="http://www.w3.org/2000/svg"><circle cx="28" cy="28" r="27.25" fill="#161517" stroke="#202223" stroke-width="1.5"/><g clip-path="url(#aha)"><path d="M28 23.5a4.5 4.5 0 1 0 0 9 4.5 4.5 0 0 0 0-9Zm0 7.5a3 3 0 1 1 3-3 3.01 3.01 0 0 1-3 3Zm4.125-12.375h-8.25a5.25 5.25 0 0 0-5.25 5.25v8.25a5.25 5.25 0 0 0 5.25 5.25h8.25a5.25 5.25 0 0 0 5.25-5.25v-8.25a5.25 5.25 0 0 0-5.25-5.25Zm3.75 13.5a3.75 3.75 0 0 1-3.75 3.75h-8.25a3.75 3.75 0 0 1-3.75-3.75v-8.25a3.75 3.75 0 0 1 3.75-3.75h8.25a3.75 3.75 0 0 1 3.75 3.75v8.25Zm-1.875-9a1.125 1.125 0 1 1-2.25 0 1.125 1.125 0 0 1 2.25 0Z" fill="#fff"/></g><defs><clipPath id="aha"><path fill="#fff" transform="translate(16 16)" d="M0 0h24v24H0z"/></clipPath></defs></svg><svg fill="none" viewBox="0 0 50 56" id="interview" xmlns="http://www.w3.org/2000/svg"><path d="M43.05 11H5.37c-.694 0-1.2.655-1.026 1.325l6.332 24.36c.122.467.543.793 1.025.793h18.975c.585 0 1.059.474 1.059 1.058v5.844c0 .25.29.39.486.235l8.67-6.864c.22-.175.362-.43.394-.71l2.817-24.863A1.059 1.059 0 0 0 43.05 11Z" stroke="#202223" stroke-width="1.7"/><path d="M14.5 20.35c0-.47.38-.85.85-.85h18.3a.85.85 0 0 1 0 1.7h-18.3a.85.85 0 0 1-.85-.85ZM16.5 27.15c0-.47.38-.85.85-.85h16.3a.85.85 0 0 1 0 1.7h-16.3a.85.85 0 0 1-.85-.85Z" fill="#202223"/></svg><svg fill="none" viewBox="0 0 21 20" id="like" xmlns="http://www.w3.org/2000/svg"><path d="m9.86 4.478.64.856.64-.855.002-.003.007-.01.032-.04a12.689 12.689 0 0 1 .546-.665c.363-.413.746-.79 1.007-.945a4.303 4.303 0 0 1 2.107-.602A4.604 4.604 0 0 1 17.99 3.67a4.494 4.494 0 0 1 1.207 3.236v.03c0 1.118-.462 2.347-1.242 3.61-.775 1.254-1.825 2.478-2.907 3.568a37.187 37.187 0 0 1-4.548 3.862 37.317 37.317 0 0 1-4.548-3.863C4.87 13.023 3.82 11.8 3.045 10.545c-.78-1.262-1.241-2.491-1.241-3.609v-.03A4.495 4.495 0 0 1 3.01 3.67 4.604 4.604 0 0 1 6.16 2.214c.743.016 1.47.223 2.107.602.261.155.644.532 1.007.945a13.983 13.983 0 0 1 .546.664l.032.041.007.01.002.002Z" stroke="#202223" stroke-width="1.6"/></svg><svg fill="none" viewBox="0 0 24 24" id="menu" xmlns="http://www.w3.org/2000/svg"><path fill="#202223" d="M0 11h24v2H0zM0 5h24v2H0zM0 17h24v2H0z"/></svg><svg fill="none" viewBox="0 0 32 32" id="more" xmlns="http://www.w3.org/2000/svg"><circle cx="16" cy="16" transform="matrix(1 0 0 -1 0 32)" fill="#202223" r="16"/><path d="m16.336 11.023 5.199 5.2m0 0-5.2 5.198m5.2-5.199H10.91" stroke="#fff" stroke-width="1.5"/></svg><svg fill="none" viewBox="0 0 70 69" id="more-w" xmlns="http://www.w3.org/2000/svg"><g filter="url(#ama)"><circle cx="28" cy="28" transform="matrix(1 0 0 -1 7 60)" fill="#fff" r="28"/><path d="M62 32C62 17.088 49.912 5 35 5S8 17.088 8 32s12.088 27 27 27 27-12.088 27-27Z" stroke="#202223" stroke-width="2"/></g><path d="m35.588 23.291 9.099 9.099m0 0-9.099 9.098m9.099-9.098H26.095" stroke="#202223" stroke-width="2"/><defs><filter id="ama" x=".636" y=".182" width="68.727" height="68.727" filterUnits="userSpaceOnUse" color-interpolation-filters="sRGB"><feFlood flood-opacity="0" result="BackgroundImageFix"/><feColorMatrix in="SourceAlpha" values="0 0 0 0 0 0 0 0 0 0 0 0 0 0 0 0 0 0 127 0" result="hardAlpha"/><feOffset dy="2.545"/><feGaussianBlur stdDeviation="3.182"/><feComposite in2="hardAlpha" operator="out"/><feColorMatrix values="0 0 0 0 0 0 0 0 0 0 0 0 0 0 0 0 0 0 0.05 0"/><feBlend in2="BackgroundImageFix" result="effect1_dropShadow_1135_84809"/><feBlend in="SourceGraphic" in2="effect1_dropShadow_1135_84809" result="shape"/></filter></defs></svg><svg fill="none" viewBox="0 0 22 21" id="more2" xmlns="http://www.w3.org/2000/svg"><g clip-path="url(#aoa)"><path d="M17.318 12.742a1.011 1.011 0 0 0-1.24.475 6.011 6.011 0 1 1-.001-5.815l-.971.44a.667.667 0 0 0 .043 1.234l2.865 1.076c.345.13.73-.045.859-.39l1.076-2.865a.667.667 0 0 0-.9-.842l-1.145.52a8 8 0 1 0-.071 7.61 1.01 1.01 0 0 0-.515-1.443Z" fill="#fff"/></g><defs><clipPath id="aoa"><path fill="#fff" transform="rotate(20.589 3.063 16.861)" d="M0 0h16v16H0z"/></clipPath></defs></svg><svg fill="none" viewBox="0 0 48 48" id="news" xmlns="http://www.w3.org/2000/svg"><path d="M15.027 1.013c-3.9.664-5.12 3.126-5.273 5.333-.123 1.776.456 3.428 1.5 4.87.712.983 1.604 2.07 1.82 3.266.437 2.433-.915 4.509-1.815 5.368-2.41 3.013-1.507 6.077-.753 7.233 3.134 4.58 7.635 2.612 9.494 1.055 2.049-2.17 5.073-1.809 6.329-1.357 3.527 1.764 4.064 4.594 3.758 6.605-.16 1.052-.476 1.809-1.097 2.673-.971 1.351-2.215 2.964-2.288 4.626-.132 3.015 1.845 4.892 3.093 5.536 4.219 2.17 7.183-.703 8.137-2.411a5.914 5.914 0 0 0 .617-1.691c.606-3.065-2.567-5.429-3.28-8.47a4.391 4.391 0 0 1-.05-.237c-.482-2.652 1.206-4.923 2.11-5.726 2.652-3.497.703-6.882-.602-8.138-2.28-1.887-4.557-1.825-6.227-1.22-1.508.548-2.504 1.999-3.964 2.665-.454.208-.858.321-1.112.364-3.495.843-5.877-1.86-6.63-3.316-1.567-3.255.15-5.977 1.206-6.932 1.771-1.992 1.961-5.187.502-7.419-1.485-2.272-4.018-2.783-5.475-2.677Z" stroke="#202223" stroke-width="1.7"/></svg><svg fill="none" viewBox="0 0 11 10" id="news-more" xmlns="http://www.w3.org/2000/svg"><path d="m5.07 1.585 3.898 3.899m0 0-3.899 3.9m3.9-3.9H1" stroke="#202223" stroke-width="1.5"/></svg><svg fill="none" viewBox="0 0 68 68" id="play" xmlns="http://www.w3.org/2000/svg"><circle cx="34" cy="34" r="34" fill="#fff"/><path d="m44 34-15 8.66V25.34L44 34Z" fill="#202223"/></svg><svg fill="none" viewBox="0 0 16 16" id="plus" xmlns="http://www.w3.org/2000/svg"><path fill="#fff" d="M7.273 0h1.6v16h-1.6z"/><path fill="#fff" d="M16 7.273v1.6H0v-1.6z"/></svg><svg fill="none" viewBox="0 0 56 56" id="qu" xmlns="http://www.w3.org/2000/svg"><path d="M55.047 44.637h-20V31.012c0-2.875.417-5.584 1.25-8.125.875-2.584 2.146-4.834 3.812-6.75 1.667-1.917 3.73-3.459 6.188-4.625 2.5-1.167 5.417-1.75 8.75-1.75v7.312c-8.458 0-12.688 4.646-12.688 13.938v1.937h12.688v11.688Zm-34.938 0H.234V31.012c0-2.875.396-5.584 1.188-8.125.833-2.584 2.083-4.834 3.75-6.75 1.667-1.917 3.729-3.459 6.187-4.625 2.5-1.167 5.417-1.75 8.75-1.75v7.312c-8.375 0-12.562 4.646-12.562 13.938v1.937h12.562v11.688Z" fill="#000"/></svg><svg fill="none" viewBox="0 0 20 20" id="search" xmlns="http://www.w3.org/2000/svg"><path fill-rule="evenodd" clip-rule="evenodd" d="M14.442 7.872a6.272 6.272 0 1 1-12.545 0 6.272 6.272 0 0 1 12.545 0Zm-1.585 6.325a7.872 7.872 0 1 1 1.184-1.08l5.405 5.267-1.116 1.145-5.473-5.332Z" fill="#202223"/></svg><svg fill="none" viewBox="0 0 48 48" id="spec" xmlns="http://www.w3.org/2000/svg"><path d="M23.683 5.208c.091-.32.543-.32.634 0l2.945 10.319a2.03 2.03 0 0 0 2.445 1.412l10.41-2.61c.32-.08.547.311.316.55l-7.464 7.71a2.03 2.03 0 0 0 0 2.823l7.464 7.71c.23.238.005.63-.317.549l-10.41-2.61a2.03 2.03 0 0 0-2.444 1.412l-2.945 10.32c-.091.318-.543.318-.634 0l-2.945-10.32a2.03 2.03 0 0 0-2.445-1.412l-10.41 2.61c-.32.08-.547-.311-.316-.55l7.464-7.71a2.03 2.03 0 0 0 0-2.823l-7.464-7.71c-.23-.238-.005-.63.317-.549l10.41 2.61a2.03 2.03 0 0 0 2.444-1.412l2.945-10.32Z" stroke="#202223" stroke-width="1.7"/></svg><svg fill="none" viewBox="0 0 24 22" id="star" xmlns="http://www.w3.org/2000/svg"><path d="m12 0 2.694 8.292h8.719l-7.054 5.124 2.694 8.292L12 16.584l-7.053 5.124 2.694-8.292L.587 8.292h8.719L12 0Z" fill="#202223"/></svg><svg fill="none" viewBox="0 0 24 22" id="star-g" xmlns="http://www.w3.org/2000/svg"><path d="m12 0 2.694 8.292h8.719l-7.054 5.124 2.694 8.292L12 16.584l-7.053 5.124 2.694-8.292L.587 8.292h8.719L12 0Z" fill="#847C8D" fill-opacity=".56"/></svg><svg fill="none" viewBox="0 0 49 48" id="stories" xmlns="http://www.w3.org/2000/svg"><path d="M12.134 37.93 7.98 8.85h30.147l-1.206 8.44-2.135 14.947-.813 5.692a.257.257 0 0 1-.255.221h-21.33a.257.257 0 0 1-.254-.22Z" stroke="#202223" stroke-width="1.7"/><path d="m39.797 17.87-2.91.647-2.215 14.393 3.321-.553 2.057-.412a9.084 9.084 0 0 0 5.566-3.565l.819-1.126a5.906 5.906 0 0 0-2.378-8.871l-.25-.111a6.435 6.435 0 0 0-4.01-.402Z" stroke="#202223" stroke-width="1.7"/></svg><svg fill="none" viewBox="0 0 56 56" id="tg" xmlns="http://www.w3.org/2000/svg"><circle cx="28" cy="28" r="27.25" stroke="#202223" stroke-width="1.5"/><path d="M37.687 18.971a1.509 1.509 0 0 0-1.528-.253l-17.307 6.797a1.48 1.48 0 0 0-.947 1.528 1.5 1.5 0 0 0 1.2 1.34l4.397.873v5.493a1.5 1.5 0 0 0 2.074 1.387c.182-.076.347-.187.486-.327l2.437-2.428 3.685 3.243a1.5 1.5 0 0 0 2.456-.787l3.525-15.394a1.5 1.5 0 0 0-.478-1.472ZM24.074 27.84l-4.669-.928 13.088-5.147-8.419 6.075Zm.928 6.91v-4.445l2.363 2.082-2.363 2.362Zm8.175.75-7.725-6.798 11.128-8.034-3.403 14.831Z" fill="#000"/></svg><svg fill="none" viewBox="0 0 56 56" id="tg-h" xmlns="http://www.w3.org/2000/svg"><circle cx="28" cy="28" r="27.25" fill="#161517" stroke="#202223" stroke-width="1.5"/><path d="M37.687 18.971a1.509 1.509 0 0 0-1.528-.253l-17.307 6.797a1.48 1.48 0 0 0-.947 1.528 1.5 1.5 0 0 0 1.2 1.34l4.397.873v5.493a1.5 1.5 0 0 0 2.074 1.387c.182-.076.347-.187.486-.327l2.437-2.428 3.685 3.243a1.5 1.5 0 0 0 2.456-.787l3.525-15.394a1.5 1.5 0 0 0-.478-1.472ZM24.074 27.84l-4.669-.928 13.088-5.147-8.419 6.075Zm.928 6.91v-4.445l2.363 2.082-2.363 2.362Zm8.175.75-7.725-6.798 11.128-8.034-3.403 14.831Z" fill="#fff"/></svg><svg fill="none" viewBox="0 0 21 20" id="user" xmlns="http://www.w3.org/2000/svg"><g clip-path="url(#bba)" fill="#202223"><path d="M10.297 10a5 5 0 1 0 0-10 5 5 0 0 0 0 10Zm0-8.333a3.334 3.334 0 1 1 0 6.667 3.334 3.334 0 0 1 0-6.667ZM10.297 11.668a7.508 7.508 0 0 0-7.5 7.5.833.833 0 0 0 1.667 0 5.833 5.833 0 1 1 11.666 0 .833.833 0 0 0 1.667 0 7.508 7.508 0 0 0-7.5-7.5Z"/></g><defs><clipPath id="bba"><path fill="#fff" transform="translate(.297)" d="M0 0h20v20H0z"/></clipPath></defs></svg><svg fill="none" viewBox="0 0 56 56" id="ytb" xmlns="http://www.w3.org/2000/svg"><circle cx="28" cy="28" r="27.25" stroke="#202223" stroke-width="1.5"/><g clip-path="url(#bda)"><path d="m31.413 27.373-4.5-3a.779.779 0 0 0-.77-.037.75.75 0 0 0-.393.666v6a.75.75 0 0 0 .394.665c.11.056.232.084.356.085a.788.788 0 0 0 .413-.122l4.5-3a.75.75 0 0 0 0-1.257Zm-4.163 2.232v-3.207l2.4 1.604-2.4 1.603Zm10.716-7.06a2.202 2.202 0 0 0-1.36-1.528C33.4 19.78 28.281 19.79 28 19.79c-.281 0-5.4-.01-8.606 1.228a2.202 2.202 0 0 0-1.36 1.528c-.243.928-.534 2.635-.534 5.457 0 2.821.29 4.528.534 5.456a2.202 2.202 0 0 0 1.36 1.528c3.075 1.19 7.894 1.228 8.54 1.228h.132c.646 0 5.465-.037 8.54-1.228a2.203 2.203 0 0 0 1.36-1.528c.243-.928.534-2.635.534-5.456 0-2.822-.29-4.529-.534-5.457Zm-1.453 10.538a.731.731 0 0 1-.441.506C33.1 34.733 28.056 34.714 28 34.714h-.01c-.046 0-5.09.019-8.062-1.125a.732.732 0 0 1-.44-.506c-.226-.853-.488-2.419-.488-5.081 0-2.663.262-4.229.488-5.082a.73.73 0 0 1 .44-.506c2.86-1.097 7.66-1.125 8.053-1.125H28c.056 0 5.1-.019 8.072 1.125a.73.73 0 0 1 .44.506c.225.853.488 2.42.488 5.082s-.263 4.228-.487 5.08Z" fill="#000"/></g><defs><clipPath id="bda"><path fill="#fff" transform="translate(16 16)" d="M0 0h24v24H0z"/></clipPath></defs></svg><svg fill="none" viewBox="0 0 56 56" id="ytb-h" xmlns="http://www.w3.org/2000/svg"><circle cx="28" cy="28" r="27.25" fill="#161517" stroke="#202223" stroke-width="1.5"/><g clip-path="url(#bca)"><path d="m31.413 27.373-4.5-3a.779.779 0 0 0-.77-.037.75.75 0 0 0-.393.666v6a.75.75 0 0 0 .394.665c.11.056.232.084.356.085a.788.788 0 0 0 .413-.122l4.5-3a.75.75 0 0 0 0-1.257Zm-4.163 2.232v-3.207l2.4 1.604-2.4 1.603Zm10.716-7.06a2.202 2.202 0 0 0-1.36-1.528C33.4 19.78 28.281 19.79 28 19.79c-.281 0-5.4-.01-8.606 1.228a2.202 2.202 0 0 0-1.36 1.528c-.243.928-.534 2.635-.534 5.457 0 2.821.29 4.528.534 5.456a2.202 2.202 0 0 0 1.36 1.528c3.075 1.19 7.894 1.228 8.54 1.228h.132c.646 0 5.465-.037 8.54-1.228a2.203 2.203 0 0 0 1.36-1.528c.243-.928.534-2.635.534-5.456 0-2.822-.29-4.529-.534-5.457Zm-1.453 10.538a.731.731 0 0 1-.441.506C33.1 34.733 28.056 34.714 28 34.714h-.01c-.046 0-5.09.019-8.062-1.125a.732.732 0 0 1-.44-.506c-.226-.853-.488-2.419-.488-5.081 0-2.663.262-4.229.488-5.082a.73.73 0 0 1 .44-.506c2.86-1.097 7.66-1.125 8.053-1.125H28c.056 0 5.1-.019 8.072 1.125a.73.73 0 0 1 .44.506c.225.853.488 2.42.488 5.082s-.263 4.228-.487 5.08Z" fill="#fff"/></g><defs><clipPath id="bca"><path fill="#fff" transform="translate(16 16)" d="M0 0h24v24H0z"/></clipPath></defs></svg></svg>